<?xml version="1.0" encoding="utf-8"?>
<!-- Generator: Adobe Illustrator 26.2.1, SVG Export Plug-In . SVG Version: 6.00 Build 0)  -->
<svg version="1.1" id="Capa_1" xmlns="http://www.w3.org/2000/svg" xmlns:xlink="http://www.w3.org/1999/xlink" x="0px" y="0px"
	 viewBox="0 0 432 101.6" style="enable-background:new 0 0 432 101.6;" xml:space="preserve">
<style type="text/css">
	.st0{fill:#C44536;}
	.st1{fill:#FFFFFF;}
</style>
<path class="st0" d="M58.3,37.1h-22v6.3H56c3.3,0,6,2.7,6,6v33c0,3.3-2.7,6-6,6H23c-3.3,0-6-2.7-6-6v-33c0-3.3,2.7-6,6-6h1.5v-6.3
	h-3.8c-5.6,0-10.1,4.5-10.1,10c0,0,0,0,0,0v37.6c0,5.5,4.5,10,10.1,10h37.6c5.5,0,10-4.5,10.1-10V47.2
	C68.4,41.6,63.9,37.1,58.3,37.1C58.4,37.1,58.4,37.1,58.3,37.1z"/>
<path class="st0" d="M74.9,17.4H37.3c-5.5,0-10,4.5-10,10V65c0,5.6,4.5,10.1,10,10.1c0,0,0,0,0,0h21.9v-6.3H39.7c-3.3,0-6-2.7-6-6
	v-33c0-3.3,2.7-6,6-6h32.9c3.3,0,6,2.7,6,6v33c0,3.3-2.7,6-6,6H71v6.3h3.9c5.6,0,10.1-4.5,10.1-10c0,0,0,0,0-0.1V27.5
	C85,21.9,80.5,17.4,74.9,17.4C74.9,17.4,74.9,17.4,74.9,17.4z"/>
<path class="st1" d="M105,41.9v22.8h-5.2V15.9h8.5c7.3,0,11,3.2,11,11.2v2.2c0,6.6-2.3,9.4-5,10.3c3.1,1.2,4.5,3.5,4.5,10
	c0,4.2-0.1,12,0.5,15.1h-5.1c-0.6-3-0.5-11.2-0.5-14.7c0-6.3-0.9-8.1-5.7-8.1L105,41.9z M105,37.5h3.2c4.6,0,5.8-2.7,5.8-7.9v-2.2
	c0-4.5-1.2-7.1-6.1-7.1H105V37.5z"/>
<path class="st1" d="M145.8,41.1h-11v18.9h12.4l-0.7,4.8h-16.9V15.9h16.8v4.8h-11.6v15.6h11L145.8,41.1z"/>
<path class="st1" d="M155.8,15.9h8.9c10.6,0,11.9,6.5,11.9,14.3v19.3c0,7.5-1.1,15.3-12.2,15.3h-8.5L155.8,15.9z M161,60.2h3
	c5.9,0,7.3-3.3,7.3-9.7V29.5c0-5.6-1-9.1-7.2-9.1h-3L161,60.2z"/>
<path class="st1" d="M191.3,64.7l-6.8-48.8h5.5c1.6,11.9,4,32.4,4.4,40.1h0.1c0.7-7.8,4-28.5,5.6-40.1h5.3
	c1.7,11.6,4.9,31.1,5.6,39.8h0.2c0.6-8.4,3.2-27.9,4.7-39.8h5.3l-7.4,48.8h-5.6c-1.6-11.4-4.6-30.7-5.5-38.8h-0.1
	c-1,8.8-3.9,27.5-5.7,38.8H191.3z"/>
<path class="st1" d="M250.3,27.9v24.6c0,8.6-3.5,12.9-10.8,12.9c-7.6,0-10.3-4.8-10.3-12.8V27.9c0-8.3,3.8-12.7,10.7-12.7
	C247.1,15.2,250.3,20.2,250.3,27.9z M234.5,27.6V53c0,5.5,2,7.7,5.3,7.7c3.4,0,5.3-2.1,5.3-7.9V27.7c0-5.2-1.8-7.7-5.3-7.7
	S234.5,22.3,234.5,27.6z"/>
<path class="st1" d="M281,27.9v24.6c0,8.6-3.5,12.9-10.8,12.9c-7.6,0-10.3-4.8-10.3-12.8V27.9c0-8.3,3.8-12.7,10.7-12.7
	C277.8,15.2,281,20.2,281,27.9z M265.2,27.6V53c0,5.5,2,7.7,5.3,7.7c3.5,0,5.3-2.1,5.3-7.9V27.7c0-5.2-1.8-7.7-5.3-7.7
	S265.2,22.3,265.2,27.6L265.2,27.6z"/>
<path class="st1" d="M291.7,15.9h8.9c10.5,0,11.9,6.5,11.9,14.3v19.3c0,7.5-1.1,15.3-12.2,15.3h-8.5V15.9z M296.9,60.2h2.9
	c5.9,0,7.3-3.3,7.3-9.7V29.5c0-5.6-1-9.1-7.2-9.1h-3L296.9,60.2z"/>
<path class="st1" d="M323.1,15.9h8.9c7.3,0,10.7,3.7,10.7,11.6v3c0,7.3-2.2,12.8-11.1,12.8h-3.3v21.5h-5.2L323.1,15.9z M328.3,38.8
	h2.9c5.5,0,6.3-3.4,6.3-8.5v-2.6c0-4-0.9-7.4-5.9-7.4h-3.4L328.3,38.8z"/>
<path class="st1" d="M357.5,15.9v48.8h-5.2V15.9H357.5z"/>
<path class="st1" d="M385.3,41.1h-11v18.9h12.4l-0.7,4.8h-16.9V15.9h16.8v4.8h-11.6v15.6h11V41.1z"/>
<path class="st1" d="M400.4,41.9v22.8h-5.2V15.9h8.5c7.3,0,10.9,3.2,10.9,11.2v2.2c0,6.6-2.3,9.4-5,10.3c3.1,1.2,4.5,3.5,4.5,10
	c0,4.2-0.1,12,0.5,15.1h-5.1c-0.6-3-0.5-11.2-0.5-14.7c0-6.3-0.9-8.1-5.7-8.1L400.4,41.9z M400.4,37.5h3.2c4.6,0,5.9-2.7,5.9-7.9
	v-2.2c0-4.5-1.2-7.1-6.1-7.1h-2.9V37.5z"/>
<path class="st1" d="M102.8,86.8v1c0,1.7,0.6,2.6,1.9,2.6s1.8-0.9,1.8-2.9c0-2.1-0.5-3-2.4-4.5s-2.9-2.4-2.9-5.1
	c0-2.3,0.7-4.5,3.6-4.5c2.7,0,3.4,1.8,3.4,4.1v0.8h-1.9v-0.8c0-1.5-0.3-2.5-1.5-2.5s-1.6,1.1-1.6,2.5c0,1.7,0.3,2.3,2,3.6
	c2.5,1.9,3.3,3,3.3,6c0,2.6-0.7,4.9-3.8,4.9s-3.8-1.9-3.8-4.3v-1L102.8,86.8z"/>
<path class="st1" d="M125.6,88.2c0,1.8,0,3.1,0,3.8h-1.8c-0.1-0.5-0.1-1-0.1-1.4c-0.3,1.1-1.4,1.8-2.5,1.7c-1.1,0-2.7-0.4-2.7-3.5
	V78.1h1.9v10c0,1.7,0.4,2.3,1.5,2.3s1.8-0.6,1.8-3.2V78h1.9L125.6,88.2z"/>
<path class="st1" d="M138.3,90.8v5.8h-1.9V82.1c0-1.9,0-3.1,0-4h1.9c0,0.3,0.1,0.8,0.1,1.5c0.4-1.1,1.4-1.8,2.5-1.7
	c1.9,0,2.8,1.3,2.8,4v5.9c0,3.1-1.2,4.4-3,4.4C139.6,92.3,138.7,91.7,138.3,90.8z M141.7,87.8V82c0-1.7-0.6-2.3-1.5-2.3
	c-1.4,0-1.9,1.2-1.9,3v4.5c0,1.6,0.2,3.2,1.7,3.2C141.2,90.4,141.6,89.5,141.7,87.8L141.7,87.8z"/>
<path class="st1" d="M155.9,90.8v5.8H154V82.1c0-1.9,0-3.1,0-4h1.9c0.1,0.5,0.1,1,0.1,1.5c0.3-1.1,1.4-1.8,2.5-1.7
	c1.9,0,2.8,1.3,2.8,4v5.9c0,3.1-1.2,4.4-3,4.4C157.3,92.3,156.3,91.7,155.9,90.8z M159.2,87.8V82c0-1.7-0.6-2.3-1.5-2.3
	c-1.4,0-1.9,1.2-1.9,3v4.5c0,1.6,0.2,3.2,1.7,3.2C158.8,90.4,159.2,89.5,159.2,87.8L159.2,87.8z"/>
<path class="st1" d="M171.5,92V73h1.9v19H171.5z"/>
<path class="st1" d="M185.3,78.1c0.9,5,1.8,9.8,1.9,11.4l0,0c0.3-2.2,1.2-6.7,2-11.4h1.9l-3,14.6c-0.8,3.9-2,4.1-3.5,4.1
	c-0.3,0-0.7,0-1-0.1v-1.8c0.3,0.1,0.5,0.1,0.8,0.1c1,0,1.4-0.4,1.8-2.6l-3-14.4L185.3,78.1z"/>
<path class="st1" d="M219.8,86.7v0.6c0,2.3-0.4,4.8-3.7,4.8s-3.7-2.2-3.7-4.9V78c0-2.9,1.2-4.5,3.7-4.5c3.1,0,3.6,2.2,3.6,4.6v0.7
	h-2v-0.8c0-1.4-0.2-2.7-1.7-2.7s-1.7,1.1-1.7,2.7v9.4c0,1.8,0.4,3,1.8,3s1.7-1.2,1.7-3v-0.8L219.8,86.7z"/>
<path class="st1" d="M231.9,72.9v6.4c0.5-1,1.5-1.6,2.5-1.5c2.1,0,2.7,1.6,2.7,3.6V92h-1.9V82c0-1.2-0.2-2.3-1.5-2.3
	c-1.5,0-1.8,1.1-1.8,3.2V92H230V73L231.9,72.9z"/>
<path class="st1" d="M254.2,89.6c0,1,0,2,0.1,2.4h-1.8c-0.1-0.3-0.1-0.9-0.1-1.1c-0.4,0.9-1.3,1.4-2.3,1.3c-2,0-2.8-1.8-2.8-3.9V88
	c0-3.1,2-4.2,4.4-4.2h0.6v-2.2c0-1.2-0.2-2-1.3-2s-1.4,0.8-1.4,1.9v0.4h-1.9v-0.3c0-1.9,0.8-3.6,3.4-3.6c2.4,0,3.2,1.5,3.2,3.6V89.6
	z M252.3,85.3h-0.7c-1.6,0-2.5,0.7-2.5,2.7v0.2c0,1.2,0.4,2.2,1.5,2.2c1.3,0,1.7-1,1.7-3.1L252.3,85.3z"/>
<path class="st1" d="M264.9,78.1h1.9V92h-1.9V78.1z M264.9,72.9h1.9v2.8h-1.9V72.9z"/>
<path class="st1" d="M277.6,82.3c0-2.8,0-3.5,0-4.2h1.8c0.1,0.5,0.1,0.9,0.1,1.4c0.4-1,1.4-1.7,2.5-1.6c1.5,0,2.7,0.9,2.7,3.4V92
	h-1.9V81.7c0-1.3-0.5-2-1.5-2c-1.2,0-1.9,0.6-1.9,3.2V92h-1.9L277.6,82.3z"/>
<path class="st1" d="M307.4,82.1c0-2.5,0-3.3,0-4h1.9c0.1,0.4,0.1,0.9,0.1,1.3c0.4-1,1.3-1.6,2.4-1.5c1-0.1,2,0.6,2.2,1.6
	c0.4-1,1.5-1.6,2.6-1.6c1.4,0,2.6,0.6,2.6,3.3V92h-2V81.5c0-1.1-0.2-1.9-1.3-1.9c-1.3,0-1.6,1.2-1.6,2.7V92h-1.9V81.7
	c0-1.5-0.4-2-1.3-2c-1.3,0-1.6,1.2-1.6,2.8V92h-1.9L307.4,82.1z"/>
<path class="st1" d="M336,89.6c0,1,0,2,0,2.4h-1.8c-0.1-0.4-0.1-0.7-0.1-1.1c-0.4,0.9-1.3,1.4-2.3,1.3c-2,0-2.8-1.8-2.8-3.9V88
	c0-3.1,1.9-4.2,4.4-4.2h0.6v-2.2c0-1.2-0.2-2-1.3-2s-1.4,0.8-1.4,1.9v0.4h-1.9v-0.3c0-1.9,0.8-3.6,3.4-3.6c2.4,0,3.2,1.5,3.2,3.6
	L336,89.6z M334.1,85.3h-0.7c-1.6,0-2.5,0.7-2.5,2.7v0.2c0,1.2,0.4,2.2,1.5,2.2c1.3,0,1.7-1,1.7-3.1V85.3z"/>
<path class="st1" d="M345.4,78.1h1.6v-3.4h1.9v3.4h2v1.7h-2v9.3c0,0.7,0.1,1.4,1,1.4c0.3,0,0.6,0,0.9-0.1v1.5
	c-0.5,0.2-1,0.2-1.5,0.2c-1.3,0-2.3-0.6-2.3-2.7v-9.7h-1.6L345.4,78.1z"/>
<path class="st1" d="M358.8,78.1h1.6v-3.4h1.9v3.4h2v1.7h-2v9.3c0,0.7,0.1,1.4,1,1.4c0.3,0,0.6,0,0.9-0.1v1.5
	c-0.5,0.2-1,0.2-1.5,0.2c-1.3,0-2.3-0.6-2.3-2.7v-9.7h-1.6L358.8,78.1z"/>
<path class="st1" d="M375.3,85.4v2.3c0,1.4,0.3,2.8,1.6,2.8s1.5-1.1,1.5-2.4V88h1.9v0.1c0,1.6-0.4,4.1-3.5,4.1
	c-2.9,0-3.5-1.9-3.5-4.7v-5.2c0-2.1,0.7-4.4,3.6-4.4c2.7,0,3.5,2,3.5,4.4v3.1H375.3z M378.6,83.8v-1.7c0-1.3-0.2-2.6-1.6-2.6
	s-1.6,1.1-1.6,2.6v1.7H378.6z"/>
<path class="st1" d="M390.7,82.8c0-2.2,0-3.5,0-4.7h1.9c0,0.4,0.1,1.2,0.1,2.2c0.3-1.4,1.5-2.4,2.9-2.4v2.4c-1.7,0-2.9,1-2.9,3.5V92
	h-1.9L390.7,82.8z"/>
<path class="st1" d="M406.5,87.8v0.6c0,1.3,0.5,2.1,1.5,2.1s1.5-0.7,1.5-1.9s-0.4-2-2-3c-1.9-1.2-2.7-2.2-2.7-4.1s1-3.6,3.3-3.6
	c2.5,0,3.2,1.6,3.2,3.7v0.6h-1.9v-0.8c0-1.2-0.4-1.8-1.4-1.8s-1.3,0.6-1.3,1.7s0.3,1.6,1.7,2.5c2,1.3,3,2.3,3,4.6
	c0,2.5-1.1,3.9-3.5,3.9c-2.7,0-3.4-1.8-3.4-3.7v-0.6L406.5,87.8z"/>
</svg>
